<?xml version="1.0" encoding="iso-8859-1"?>
<!-- Generator: Adobe Illustrator 19.0.0, SVG Export Plug-In . SVG Version: 6.00 Build 0)  -->
<svg version="1.1" id="Layer_1" xmlns="http://www.w3.org/2000/svg" xmlns:xlink="http://www.w3.org/1999/xlink" x="0px" y="0px"
	 viewBox="0 0 512 512" style="enable-background:new 0 0 512 512;" xml:space="preserve">
<g>
	<g fill="rgba(255, 255, 255, 0.7)">
		<path d="M437.02,74.98C388.667,26.629,324.38,0,256,0S123.333,26.629,74.98,74.98C26.628,123.332,0,187.62,0,256
			s26.629,132.667,74.98,181.02C123.332,485.372,187.62,512,256,512s132.667-26.629,181.02-74.98
			C485.372,388.668,512,324.38,512,256S485.371,123.333,437.02,74.98z M256,492.308C125.699,492.308,19.692,386.301,19.692,256
			S125.699,19.692,256,19.692S492.308,125.699,492.308,256S386.301,492.308,256,492.308z"/>
	</g>
</g>
<g>
	<g fill="rgba(255, 255, 255, 0.7)">
		<path d="M256,49.231c-47.601,0-94.073,16.577-130.856,46.678c-2.153,1.761-3.46,4.352-3.598,7.13
			c-0.139,2.779,0.905,5.485,2.871,7.453l85.227,85.227c0.003,0.003,0.006,0.007,0.009,0.01l28.812,28.812l68.688,68.688
			l68.196,68.196c0.003,0.003,0.007,0.006,0.01,0.009l26.15,26.15c1.851,1.851,4.358,2.884,6.962,2.884
			c0.162,0,0.327-0.004,0.49-0.013c2.778-0.139,5.368-1.445,7.13-3.598c30.101-36.783,46.678-83.255,46.678-130.856
			C462.769,141.987,370.013,49.231,256,49.231z M270.376,228.602c15.606,4.773,27.941,17.109,32.715,32.715L270.376,228.602z
			 M384,342.226l-59.463-59.463c0.246-2.367,0.386-4.731,0.386-7.071c0-38.004-30.919-68.923-68.923-68.923
			c-2.337,0-4.702,0.139-7.07,0.386l-22.468-22.467v-17.303h59.077v19.692h-9.846c-5.437,0-9.846,4.409-9.846,9.846
			c0,5.437,4.409,9.846,9.846,9.846H384V342.226z M407.512,365.737l-5.616-5.616c1.128-1.602,1.797-3.552,1.797-5.66V196.923
			c0-5.437-4.409-9.846-9.846-9.846h-88.615v-29.538c0-5.437-4.409-9.846-9.846-9.846h-78.769c-5.437,0-9.846,4.409-9.846,9.846
			v7.456l-60.507-60.507C178.027,81.484,216.585,68.923,256,68.923c103.155,0,187.077,83.922,187.077,187.077
			C443.077,295.415,430.516,333.973,407.512,365.737z"/>
	</g>
</g>
<g>
	<g fill="rgba(255, 255, 255, 0.7)">
		<path d="M387.583,401.509l-54.002-54.003c-0.002-0.002-0.004-0.005-0.006-0.007l-33.118-33.118l-83.147-83.147l-41.274-41.274
			c-0.003-0.003-0.007-0.006-0.01-0.009l-65.535-65.535c-1.965-1.966-4.657-3.021-7.453-2.871c-2.778,0.139-5.368,1.445-7.13,3.598
			C65.808,161.927,49.231,208.399,49.231,256c0,114.013,92.757,206.769,206.769,206.769c47.601,0,94.073-16.577,130.856-46.678
			c2.153-1.761,3.46-4.352,3.598-7.13C390.593,406.183,389.549,403.477,387.583,401.509z M211.947,253.722l66.024,66.024
			c-6.781,3.377-14.313,5.177-21.972,5.177c-27.146,0-49.231-22.085-49.231-49.231C206.769,268.034,208.569,260.502,211.947,253.722
			z M197.493,239.266c-6.761,10.872-10.416,23.521-10.416,36.426c0,38.004,30.919,68.923,68.923,68.923
			c12.905,0,25.554-3.655,36.425-10.416l10.416,10.416H256H128v-9.846h9.846c5.437,0,9.846-4.409,9.846-9.846
			c0-5.437-4.409-9.846-9.846-9.846H128V206.769h36.995L197.493,239.266z M256,443.077c-103.155,0-187.077-83.922-187.077-187.077
			c0-39.415,12.561-77.973,35.565-109.737l40.814,40.814h-27.149c-5.437,0-9.846,4.409-9.846,9.846v157.538
			c0,5.437,4.409,9.846,9.846,9.846h204.38l43.204,43.204C333.973,430.516,295.415,443.077,256,443.077z"/>
	</g>
</g>
<g>
	<g fill="rgba(255, 255, 255, 0.7)">
		<path d="M354.462,226.462h-19.692c-5.437,0-9.846,4.409-9.846,9.846c0,5.437,4.409,9.846,9.846,9.846h19.692
			c5.437,0,9.846-4.409,9.846-9.846C364.308,230.871,359.899,226.462,354.462,226.462z"/>
	</g>
</g>
<g>
	<g fill="rgba(255, 255, 255, 0.7)">
		<path d="M174.345,317.962c-1.83-1.832-4.371-2.885-6.96-2.885c-2.59,0-5.13,1.053-6.961,2.885
			c-1.831,1.832-2.885,4.372-2.885,6.961s1.053,5.13,2.885,6.96c1.831,1.831,4.362,2.886,6.961,2.886c2.59,0,5.13-1.054,6.96-2.886
			c1.832-1.83,2.886-4.371,2.886-6.96S176.177,319.793,174.345,317.962z"/>
	</g>
</g>
<g>
</g>
<g>
</g>
<g>
</g>
<g>
</g>
<g>
</g>
<g>
</g>
<g>
</g>
<g>
</g>
<g>
</g>
<g>
</g>
<g>
</g>
<g>
</g>
<g>
</g>
<g>
</g>
<g>
</g>
</svg>
